<svg width="20" height="20" viewBox="0 0 20 20" fill="none" xmlns="http://www.w3.org/2000/svg">
<g id="category_24dp_FILL0_wght300_GRAD0_opsz24 1">
<path id="Vector" d="M5.99354 8.84581L10 2.27539L14.0065 8.84581H5.99354ZM14.5833 18.0125C13.6271 18.0125 12.8165 17.68 12.1515 17.015C11.4865 16.35 11.154 15.5393 11.154 14.5831C11.154 13.6269 11.4865 12.8162 12.1515 12.1512C12.8165 11.4862 13.6271 11.1537 14.5833 11.1537C15.5396 11.1537 16.3502 11.4862 17.0152 12.1512C17.6802 12.8162 18.0127 13.6269 18.0127 14.5831C18.0127 15.5393 17.6802 16.35 17.0152 17.015C16.3502 17.68 15.5396 18.0125 14.5833 18.0125ZM2.82063 17.5958V11.5704H8.84604V17.5958H2.82063ZM14.5831 16.7627C15.1933 16.7627 15.7091 16.552 16.1306 16.1306C16.5522 15.7092 16.7629 15.1934 16.7629 14.5833C16.7629 13.9732 16.5522 13.4573 16.1308 13.0358C15.7094 12.6143 15.1937 12.4035 14.5835 12.4035C13.9734 12.4035 13.4576 12.6142 13.036 13.0356C12.6145 13.457 12.4038 13.9728 12.4038 14.5829C12.4038 15.193 12.6144 15.7089 13.0358 16.1304C13.4572 16.5519 13.973 16.7627 14.5831 16.7627ZM4.07042 16.346H7.59625V12.8202H4.07042V16.346ZM8.19875 7.59602H11.8013L10 4.69852L8.19875 7.59602Z" fill="#8A8D8E"/>
</g>
</svg>
