<svg width="20" height="20" viewBox="0 0 20 20" fill="none" xmlns="http://www.w3.org/2000/svg">
<g id="Frame" clip-path="url(#clip0_2_13037)">
<g id="Group">
<path id="Vector" d="M17.9299 2.16948C17.889 2.16782 17.8481 2.16755 17.8072 2.1687H16.265V0.843386C16.265 0.31326 15.759 0 15.2289 0H13.8072C13.2771 0 12.8915 0.31326 12.8915 0.843386V2.16865H7.10841V0.843386C7.10841 0.31326 6.72288 0 6.19275 0H4.77104C4.24096 0 3.73491 0.31326 3.73491 0.843386V2.16865H2.19278C1.20835 2.14121 0.388071 2.91703 0.360629 3.90141C0.359476 3.94227 0.359752 3.98323 0.361413 4.02409V17.9518C0.361413 19.012 1.13248 20 2.19273 20H17.8072C18.8675 20 19.6385 19.012 19.6385 17.9518V4.02409C19.6789 3.04013 18.9138 2.20979 17.9299 2.16948ZM13.8072 0.963857H15.3012V3.61444H13.8072V0.963857ZM4.77109 0.963857H6.1446V3.61444H4.77109V0.963857ZM18.6747 17.9518C18.6747 18.4819 18.3374 19.0361 17.8072 19.0361H2.19278C1.66265 19.0361 1.32532 18.4819 1.32532 17.9518V7.71085H18.6747V17.9518ZM18.6747 4.02409V6.747H1.32527V4.02409C1.28445 3.57348 1.61667 3.17508 2.06728 3.13426C2.10899 3.13049 2.15093 3.12992 2.19273 3.13256H3.73491V3.66268C3.73491 4.19281 4.24091 4.57834 4.77104 4.57834H6.19275C6.68496 4.59186 7.09489 4.20374 7.10841 3.71153C7.10887 3.69525 7.10887 3.67896 7.10841 3.66268V3.13251H12.8915V3.66264C12.878 4.15485 13.2662 4.56478 13.7584 4.5783C13.7746 4.57876 13.7909 4.57876 13.8072 4.5783H15.2289C15.759 4.5783 16.265 4.19276 16.265 3.66264V3.13251H17.8072C18.2588 3.10405 18.6479 3.44706 18.6764 3.89864C18.679 3.94044 18.6785 3.98238 18.6747 4.02409Z" fill="#8A8D8E"/>
<path id="Vector_2" d="M7.32527 14.2892L6.89154 16.6989C6.87438 16.8023 6.89136 16.9084 6.93992 17.0013C7.0633 17.2371 7.35451 17.3283 7.59034 17.2049L9.75899 16.0724L11.9276 17.2049L12.1445 17.2531C12.2491 17.2549 12.3511 17.2209 12.4336 17.1567C12.5043 17.1051 12.5596 17.0352 12.5936 16.9545C12.6275 16.8739 12.6389 16.7855 12.6264 16.6988L12.1927 14.2892L13.9518 12.6025C14.0136 12.5356 14.0572 12.4539 14.0783 12.3653C14.0994 12.2766 14.0973 12.184 14.0722 12.0965C14.0403 12.0155 13.9881 11.9442 13.9205 11.8893C13.853 11.8344 13.7725 11.7979 13.6867 11.7832L11.277 11.4217L10.1927 9.22897C10.1455 9.13137 10.0667 9.05258 9.96908 9.00532C9.72952 8.88933 9.4413 8.98946 9.32526 9.22897L8.24093 11.4217L5.83129 11.7832C5.74552 11.7979 5.66497 11.8344 5.59744 11.8893C5.5299 11.9441 5.47766 12.0155 5.44576 12.0965C5.42066 12.184 5.41856 12.2766 5.43966 12.3653C5.46076 12.4539 5.50435 12.5356 5.56623 12.6025L7.32527 14.2892ZM8.65059 12.3374C8.72497 12.3263 8.79519 12.296 8.85433 12.2496C8.91347 12.2031 8.95951 12.142 8.98792 12.0724L9.75899 10.5302L10.5301 12.0724C10.5585 12.142 10.6045 12.2031 10.6637 12.2496C10.7228 12.296 10.793 12.3263 10.8674 12.3374L12.5782 12.5784L11.3493 13.7591C11.2929 13.815 11.2504 13.8834 11.2253 13.9587C11.2001 14.0341 11.1931 14.1143 11.2047 14.1928L11.4939 15.9037L9.97581 15.0844L9.75894 15.0362L9.54208 15.0844L8.02402 15.9037L8.31316 14.1928C8.32479 14.1143 8.31777 14.0341 8.29265 13.9587C8.26753 13.8834 8.22502 13.815 8.16857 13.7591L6.93965 12.5784L8.65059 12.3374Z" fill="#8A8D8E"/>
</g>
</g>
<defs>
<clipPath id="clip0_2_13037">
<rect width="20" height="20" fill="white"/>
</clipPath>
</defs>
</svg>
