<svg width="20" height="20" viewBox="0 0 20 20" fill="none" xmlns="http://www.w3.org/2000/svg">
<g id="vuesax/linear/profile-circle">
<g id="profile-circle">
<path id="Vector" d="M10.1 10.6502C10.0417 10.6419 9.96667 10.6419 9.9 10.6502C8.43333 10.6002 7.26667 9.40023 7.26667 7.92523C7.26667 6.41689 8.48333 5.19189 10 5.19189C11.5083 5.19189 12.7333 6.41689 12.7333 7.92523C12.725 9.40023 11.5667 10.6002 10.1 10.6502Z" stroke="#8A8D8E" stroke-width="1.5" stroke-linecap="round" stroke-linejoin="round"/>
<path id="Vector_2" d="M15.6167 16.1498C14.1333 17.5081 12.1667 18.3331 10 18.3331C7.83334 18.3331 5.86667 17.5081 4.38334 16.1498C4.46667 15.3665 4.96667 14.5998 5.85834 13.9998C8.14167 12.4831 11.875 12.4831 14.1417 13.9998C15.0333 14.5998 15.5333 15.3665 15.6167 16.1498Z" stroke="#8A8D8E" stroke-width="1.5" stroke-linecap="round" stroke-linejoin="round"/>
<path id="Vector_3" d="M10 18.3332C14.6024 18.3332 18.3333 14.6022 18.3333 9.99984C18.3333 5.39746 14.6024 1.6665 10 1.6665C5.39763 1.6665 1.66667 5.39746 1.66667 9.99984C1.66667 14.6022 5.39763 18.3332 10 18.3332Z" stroke="#8A8D8E" stroke-width="1.5" stroke-linecap="round" stroke-linejoin="round"/>
</g>
</g>
</svg>
