<svg width="20" height="20" viewBox="0 0 20 20" fill="none" xmlns="http://www.w3.org/2000/svg">
<g id="Frame" clip-path="url(#clip0_2_13045)">
<g id="Group">
<path id="Vector" d="M2.5 1.875H3.125V2.5H2.5V1.875ZM3.75 1.875H4.375V2.5H3.75V1.875ZM5 1.875H5.625V2.5H5V1.875ZM2.8125 8.75H7.8125C7.89538 8.75 7.97487 8.71708 8.03347 8.65847C8.09208 8.59987 8.125 8.52038 8.125 8.4375V5.3125C8.125 5.22962 8.09208 5.15013 8.03347 5.09153C7.97487 5.03292 7.89538 5 7.8125 5H2.8125C2.72962 5 2.65013 5.03292 2.59153 5.09153C2.53292 5.15013 2.5 5.22962 2.5 5.3125V8.4375C2.5 8.52038 2.53292 8.59987 2.59153 8.65847C2.65013 8.71708 2.72962 8.75 2.8125 8.75ZM3.125 5.625H7.5V8.125H3.125V5.625ZM10.625 5.3125H15.625V5.9375H10.625V5.3125ZM9.375 6.5625H15V7.1875H9.375V6.5625ZM9.375 7.8125H13.75V8.4375H9.375V7.8125ZM3.75 10H11.875V10.625H3.75V10ZM2.5 11.25H10.625V11.875H2.5V11.25ZM2.5 12.5H9.375V13.125H2.5V12.5ZM2.5 13.75H9.375V14.375H2.5V13.75ZM2.5 15H9.375V15.625H2.5V15ZM2.5 10H3.125V10.625H2.5V10Z" fill="#8A8D8E"/>
<path id="Vector_2" d="M17.8125 2.5H17.5V2.1875C17.5 1.7731 17.3354 1.37567 17.0424 1.08265C16.7493 0.78962 16.3519 0.625 15.9375 0.625H2.1875C1.7731 0.625 1.37567 0.78962 1.08265 1.08265C0.78962 1.37567 0.625 1.7731 0.625 2.1875V15.9375C0.625 16.3519 0.78962 16.7493 1.08265 17.0424C1.37567 17.3354 1.7731 17.5 2.1875 17.5H2.5V17.8125C2.5 18.2269 2.66462 18.6243 2.95765 18.9174C3.25067 19.2104 3.6481 19.375 4.0625 19.375H17.8125C18.2269 19.375 18.6243 19.2104 18.9174 18.9174C19.2104 18.6243 19.375 18.2269 19.375 17.8125V4.0625C19.375 3.6481 19.2104 3.25067 18.9174 2.95765C18.6243 2.66462 18.2269 2.5 17.8125 2.5ZM17.2531 7.35625L18.5812 8.68438L17.6969 9.56875L16.3688 8.24063L17.2531 7.35625ZM11.6031 13.6406L11.85 13L12.9375 14.0875L12.2969 14.3344L11.6031 13.6406ZM11.6594 14.5781L11.1688 14.7687L11.3594 14.2781L11.6594 14.5781ZM12.6125 12.8813L12.1719 12.4406L15.9281 8.68438L16.3688 9.125L12.6125 12.8813ZM16.8125 9.56875L17.2531 10.0094L13.4969 13.7656L13.0562 13.325L16.8125 9.56875ZM1.25 2.1875C1.25074 1.93909 1.34975 1.70106 1.52541 1.52541C1.70106 1.34975 1.93909 1.25074 2.1875 1.25H15.9375C16.1859 1.25074 16.4239 1.34975 16.5996 1.52541C16.7752 1.70106 16.8743 1.93909 16.875 2.1875V3.125H1.25V2.1875ZM2.1875 16.875C1.93909 16.8743 1.70106 16.7752 1.52541 16.5996C1.34975 16.4239 1.25074 16.1859 1.25 15.9375V3.75H16.875V6.85313L11.5094 12.2188C11.4781 12.2498 11.4536 12.2871 11.4375 12.3281L10.3344 15.2C10.3117 15.2563 10.3061 15.3181 10.3183 15.3776C10.3306 15.437 10.3601 15.4916 10.4031 15.5344C10.4622 15.5927 10.542 15.6252 10.625 15.625C10.6636 15.6253 10.7018 15.6179 10.7375 15.6031L13.6094 14.5C13.6504 14.4839 13.6877 14.4594 13.7188 14.4281L16.875 11.2719V15.9375C16.8743 16.1859 16.7752 16.4239 16.5996 16.5996C16.4239 16.7752 16.1859 16.8743 15.9375 16.875H2.1875ZM18.75 17.8125C18.7493 18.0609 18.6502 18.2989 18.4746 18.4746C18.2989 18.6502 18.0609 18.7493 17.8125 18.75H4.0625C3.81409 18.7493 3.57606 18.6502 3.40041 18.4746C3.22475 18.2989 3.12574 18.0609 3.125 17.8125V17.5H15.9375C16.3519 17.5 16.7493 17.3354 17.0424 17.0424C17.3354 16.7493 17.5 16.3519 17.5 15.9375V10.6469L18.75 9.39688V17.8125ZM18.75 7.96875L17.5 6.71875V5.625H18.75V7.96875ZM18.75 5H17.5V3.125H17.8125C18.0609 3.12574 18.2989 3.22475 18.4746 3.40041C18.6502 3.57606 18.7493 3.81409 18.75 4.0625V5Z" fill="#8A8D8E"/>
<path id="Vector_3" d="M9.375 5.3125H10V5.9375H9.375V5.3125Z" fill="#8A8D8E"/>
</g>
</g>
<defs>
<clipPath id="clip0_2_13045">
<rect width="20" height="20" fill="white"/>
</clipPath>
</defs>
</svg>
