<svg width="20" height="20" viewBox="0 0 20 20" fill="none" xmlns="http://www.w3.org/2000/svg">
<g id="vuesax/linear/setting-2">
<g id="setting-2">
<path id="Vector" d="M10 12.5C11.3807 12.5 12.5 11.3807 12.5 10C12.5 8.61929 11.3807 7.5 10 7.5C8.61929 7.5 7.5 8.61929 7.5 10C7.5 11.3807 8.61929 12.5 10 12.5Z" stroke="#8A8D8E" stroke-width="1.5" stroke-miterlimit="10" stroke-linecap="round" stroke-linejoin="round"/>
<path id="Vector_2" d="M1.66667 10.7334V9.2667C1.66667 8.40003 2.375 7.68336 3.25 7.68336C4.75833 7.68336 5.375 6.6167 4.61667 5.30836C4.18333 4.55836 4.44167 3.58336 5.2 3.15003L6.64167 2.32503C7.3 1.93336 8.15 2.1667 8.54167 2.82503L8.63333 2.98336C9.38333 4.2917 10.6167 4.2917 11.375 2.98336L11.4667 2.82503C11.8583 2.1667 12.7083 1.93336 13.3667 2.32503L14.8083 3.15003C15.5667 3.58336 15.825 4.55836 15.3917 5.30836C14.6333 6.6167 15.25 7.68336 16.7583 7.68336C17.625 7.68336 18.3417 8.3917 18.3417 9.2667V10.7334C18.3417 11.6 17.6333 12.3167 16.7583 12.3167C15.25 12.3167 14.6333 13.3834 15.3917 14.6917C15.825 15.45 15.5667 16.4167 14.8083 16.85L13.3667 17.675C12.7083 18.0667 11.8583 17.8334 11.4667 17.175L11.375 17.0167C10.625 15.7084 9.39167 15.7084 8.63333 17.0167L8.54167 17.175C8.15 17.8334 7.3 18.0667 6.64167 17.675L5.2 16.85C4.44167 16.4167 4.18333 15.4417 4.61667 14.6917C5.375 13.3834 4.75833 12.3167 3.25 12.3167C2.375 12.3167 1.66667 11.6 1.66667 10.7334Z" stroke="#8A8D8E" stroke-width="1.5" stroke-miterlimit="10" stroke-linecap="round" stroke-linejoin="round"/>
</g>
</g>
</svg>
