<svg width="20" height="20" viewBox="0 0 20 20" fill="none" xmlns="http://www.w3.org/2000/svg">
<g id="users-more-svgrepo-com 1">
<path id="Vector" d="M15.8333 11.6665C17.6742 11.6665 19.1667 13.3332 19.1667 14.5832C19.1667 15.2735 18.607 15.8332 17.9167 15.8332H17.5M14.1667 9.1665C15.5474 9.1665 16.6667 8.04721 16.6667 6.6665C16.6667 5.2858 15.5474 4.1665 14.1667 4.1665M4.16667 11.6665C2.32572 11.6665 0.833332 13.3332 0.833332 14.5832C0.833332 15.2735 1.39297 15.8332 2.08333 15.8332H2.5M5.83333 9.1665C4.45262 9.1665 3.33333 8.04721 3.33333 6.6665C3.33333 5.2858 4.45262 4.1665 5.83333 4.1665M13.75 15.8332H6.25C5.55964 15.8332 5 15.2735 5 14.5832C5 12.4998 7.5 11.6665 10 11.6665C12.5 11.6665 15 12.4998 15 14.5832C15 15.2735 14.4403 15.8332 13.75 15.8332ZM12.5 6.6665C12.5 8.04721 11.3807 9.1665 10 9.1665C8.61925 9.1665 7.5 8.04721 7.5 6.6665C7.5 5.2858 8.61925 4.1665 10 4.1665C11.3807 4.1665 12.5 5.2858 12.5 6.6665Z" stroke="#8A8D8E" stroke-width="1.2" stroke-linecap="round" stroke-linejoin="round"/>
</g>
</svg>
