<svg width="40" height="40" viewBox="0 0 40 40" fill="none" xmlns="http://www.w3.org/2000/svg">
<g id="Frame">
<g id="Group">
<g id="Group_2">
<path id="Vector" d="M13.3823 31.0229L12.2793 32.6774H27.7209L26.6179 31.0229H13.3823Z" fill="#FFD700"/>
<path id="Vector_2" d="M28.2723 33.7803H11.7278C11.4232 33.7803 11.1763 34.0272 11.1763 34.3318V35.4347C11.1763 35.7393 11.4232 35.9862 11.7278 35.9862H28.2723C28.5769 35.9862 28.8238 35.7393 28.8238 35.4347V34.3318C28.8238 34.0272 28.5769 33.7803 28.2723 33.7803Z" fill="#FFD700"/>
<path id="Vector_3" d="M35.814 15.2153C35.279 14.8977 34.5665 15.0543 33.6174 15.7762C33.3681 15.9637 33.1315 16.1677 32.9099 16.3883C33.0207 16.0001 33.1238 15.6118 33.2165 15.2236C33.8899 14.3395 34.2813 13.2731 34.3399 12.1634C34.5406 10.2326 34.0862 8.59246 33.5308 8.33161C32.9639 8.58695 32.456 10.0721 32.1797 11.833C31.9929 12.8191 31.9963 13.8318 32.1896 14.8166C32.1858 14.8282 32.1775 14.837 32.1747 14.8497C32.0803 15.2466 31.9765 15.6412 31.8631 16.0332C31.7913 15.7346 31.6897 15.444 31.5598 15.1657C31.058 14.0958 30.4348 13.7081 29.8408 13.696C29.757 13.7041 29.6775 13.7374 29.6129 13.7916C29.5484 13.8457 29.5017 13.9181 29.4791 13.9993C29.2172 14.8742 29.2912 15.8154 29.6864 16.6387C29.7994 16.9997 29.984 17.3341 30.2291 17.6222C30.4743 17.9102 30.7749 18.1459 31.1131 18.3152C30.8391 19.051 30.5326 19.7741 30.1943 20.4826C30.162 20.1264 30.088 19.7753 29.9737 19.4364C29.5767 18.2618 28.9524 17.7417 28.3121 17.5994C28.2263 17.5861 28.1385 17.6002 28.0612 17.6399C27.9839 17.6795 27.9212 17.7425 27.882 17.82C27.6863 18.2367 27.5756 18.6881 27.5564 19.148C27.5372 19.6079 27.6098 20.0671 27.77 20.4986C27.9389 21.3245 28.4276 22.0501 29.1294 22.5171C28.7398 23.1917 28.3218 23.8494 27.8764 24.4886C27.8961 24.0871 27.8625 23.6847 27.7766 23.2919C27.5009 22.0251 26.8998 21.3727 26.2369 21.0942C26.153 21.0616 26.0608 21.0568 25.974 21.0807C25.8872 21.1045 25.8103 21.1557 25.7549 21.2266C25.3109 21.8095 25.0986 22.6604 25.3164 23.9101C25.4071 24.8227 25.8455 25.6653 26.5407 26.2633C26.1679 26.7095 25.6198 27.3244 25.2696 27.7138H24.412V27.4876C24.412 27.0801 24.2758 26.6847 24.026 26.3626C23.772 26.0413 23.4192 25.8126 23.0223 25.7118C22.7658 25.6484 22.5262 25.5296 22.3205 25.3639C22.1147 25.1981 21.9477 24.9894 21.831 24.7523L21.6546 24.4048V21.6474C21.5553 21.7135 21.4505 21.7742 21.3457 21.8349C20.9374 22.0733 20.473 22.1989 20.0001 22.1989C19.5272 22.1989 19.0629 22.0733 18.6545 21.8349C18.5497 21.7742 18.4449 21.7135 18.3456 21.6474V24.4048L18.1692 24.7523C18.0525 24.9894 17.8855 25.1981 17.6797 25.3639C17.474 25.5296 17.2345 25.6484 16.978 25.7118C16.5816 25.8107 16.2296 26.0392 15.9779 26.3609C15.7261 26.6826 15.589 27.0791 15.5882 27.4876V27.7138H14.7307C14.3799 27.3244 13.8317 26.7095 13.4595 26.2633C14.1547 25.6653 14.5931 24.8227 14.6838 23.9101C14.9016 22.6604 14.6893 21.81 14.2453 21.2271C14.1899 21.1562 14.113 21.1051 14.0262 21.0812C13.9394 21.0574 13.8472 21.0621 13.7633 21.0948C13.0999 21.3727 12.4999 22.0251 12.2236 23.2919C12.1379 23.6847 12.1045 24.0871 12.1243 24.4886C11.6792 23.8492 11.261 23.1915 10.8708 22.5171C11.5726 22.0501 12.0613 21.3245 12.2302 20.4986C12.3903 20.067 12.4628 19.6079 12.4435 19.148C12.4242 18.6881 12.3134 18.2366 12.1177 17.82C12.0785 17.7424 12.0158 17.6793 11.9386 17.6395C11.8613 17.5998 11.7734 17.5856 11.6876 17.5989C11.0478 17.7411 10.4235 18.2612 10.0259 19.4353C9.91158 19.7746 9.83754 20.1261 9.80533 20.4826C9.46748 19.7736 9.16093 19.0501 8.88655 18.3141C9.22481 18.145 9.52552 17.9094 9.77073 17.6214C10.0159 17.3335 10.2006 16.9991 10.3138 16.6382C10.7092 15.8148 10.7826 14.8734 10.5212 13.9987C10.4985 13.9175 10.4517 13.845 10.387 13.7909C10.3224 13.7367 10.2428 13.7034 10.1588 13.6954C9.56543 13.7075 8.94225 14.0952 8.43985 15.1651C8.30999 15.4434 8.20837 15.734 8.13653 16.0326C8.0234 15.6407 7.91969 15.2461 7.82549 14.8491C7.82273 14.837 7.81446 14.8282 7.8106 14.816C8.00362 13.8311 8.00693 12.8185 7.82053 11.8325C7.54368 10.0721 7.03631 8.5864 6.46939 8.33105C5.91349 8.59191 5.46017 10.232 5.66035 12.1628C5.71887 13.2726 6.11034 14.339 6.78373 15.223C6.87638 15.6113 6.97951 15.9995 7.09036 16.3878C6.86866 16.1672 6.63263 15.9631 6.3828 15.7756C5.43425 15.0537 4.72117 14.8971 4.18623 15.2148C4.03182 15.3543 3.96674 15.5666 4.01637 15.769C4.09737 16.3035 4.29066 16.8147 4.58353 17.2691C4.87639 17.7235 5.26219 18.1107 5.7155 18.4051C6.60891 18.9859 7.34901 19.0057 7.87182 18.7487C8.16007 19.5182 8.48246 20.2745 8.83802 21.0153C8.53718 20.8149 8.21985 20.6404 7.88946 20.4936C6.76167 19.9841 5.96202 19.9874 5.42873 20.4192C5.28534 20.5791 5.24564 20.8069 5.32671 21.006C5.50047 21.525 5.7898 21.9978 6.17288 22.3887C6.55596 22.7796 7.02278 23.0784 7.53817 23.2627C7.91766 23.4471 8.33853 23.5299 8.75962 23.503C9.18071 23.476 9.58758 23.3402 9.94044 23.1088C10.3498 23.8148 10.7888 24.5031 11.2563 25.1719C10.8799 25.0115 10.4887 24.8883 10.0882 24.8041C8.82258 24.5256 7.96667 24.6971 7.45544 25.2431C7.39128 25.3311 7.35422 25.4359 7.34884 25.5446C7.34345 25.6534 7.36996 25.7613 7.42511 25.8552C7.6895 26.3479 8.06776 26.7702 8.52841 27.0871C8.98905 27.4039 9.51874 27.6061 10.0733 27.6768C10.5227 27.7853 10.992 27.779 11.4383 27.6586C11.8846 27.5383 12.2934 27.3077 12.6273 26.988C12.8175 27.2152 13.0426 27.475 13.2725 27.7358C13.149 27.7594 13.0375 27.825 12.957 27.9216C12.8765 28.0181 12.8319 28.1395 12.8308 28.2653V29.3682C12.8308 29.5145 12.8889 29.6548 12.9923 29.7582C13.0957 29.8616 13.236 29.9197 13.3823 29.9197H26.6179C26.7642 29.9197 26.9045 29.8616 27.0079 29.7582C27.1113 29.6548 27.1694 29.5145 27.1694 29.3682V28.2653C27.1683 28.1395 27.1237 28.0181 27.0432 27.9216C26.9627 27.825 26.8512 27.7594 26.7277 27.7358C26.9577 27.475 27.1827 27.2147 27.3729 26.988C27.7068 27.3077 28.1156 27.5383 28.5619 27.6586C29.0082 27.779 29.4775 27.7853 29.9269 27.6768C30.4814 27.606 31.0109 27.4038 31.4715 27.0869C31.932 26.7701 32.3102 26.3478 32.5745 25.8552C32.6298 25.7614 32.6564 25.6535 32.6511 25.5447C32.6458 25.436 32.6088 25.3311 32.5448 25.2431C32.0335 24.6971 31.1771 24.5256 29.9125 24.8041C29.5116 24.8879 29.12 25.0115 28.7434 25.1725C29.2114 24.5036 29.6508 23.815 30.0603 23.1088C30.4132 23.3402 30.8201 23.476 31.2411 23.503C31.6622 23.5299 32.0831 23.4471 32.4626 23.2627C32.978 23.0784 33.4448 22.7796 33.8279 22.3887C34.211 21.9978 34.5003 21.525 34.6741 21.006C34.7551 20.8069 34.7154 20.5791 34.572 20.4192C34.0387 19.9874 33.2391 19.9841 32.1113 20.4936C31.7804 20.6403 31.4633 20.8152 31.1627 21.0159C31.518 20.275 31.8402 19.5187 32.1284 18.7493C32.6512 19.0063 33.3919 18.9864 34.2847 18.4051C34.738 18.1107 35.1238 17.7235 35.4167 17.2691C35.7096 16.8147 35.9028 16.3035 35.9838 15.769C36.008 15.67 36.005 15.5662 35.9751 15.4688C35.9452 15.3713 35.8895 15.2837 35.814 15.2153Z" fill="#FFD700"/>
<path id="Vector_4" d="M11.4521 11.1694H12.4172C12.4448 11.1661 12.4724 11.1606 12.4994 11.1528L12.4999 11.1584C12.8082 13.1818 13.5727 15.1087 14.7354 16.7931C15.8982 18.4776 17.4288 19.8755 19.2115 20.8811C19.6979 21.1679 20.3024 21.1679 20.7888 20.8811C22.5715 19.8755 24.1021 18.4776 25.2649 16.7931C26.4277 15.1087 27.1921 13.1818 27.5004 11.1584L27.5009 11.1528C27.5278 11.1605 27.5553 11.1661 27.5831 11.1694H28.5482C29.3524 11.1685 30.1234 10.8487 30.692 10.28C31.2607 9.71137 31.5805 8.94037 31.5814 8.13618C31.5805 7.332 31.2607 6.561 30.692 5.99235C30.1234 5.42371 29.3524 5.10386 28.5482 5.10298H27.561C27.5296 5.1064 27.4986 5.11268 27.4684 5.12173L27.4673 5.11401C27.4177 4.82724 27.368 4.5901 27.3184 4.39156C27.2902 4.27978 27.2255 4.1806 27.1346 4.10968C27.0437 4.03877 26.9318 4.00018 26.8165 4H13.1838C13.0685 4.00018 12.9566 4.03877 12.8657 4.10968C12.7748 4.1806 12.7101 4.27978 12.6819 4.39156C12.6323 4.5901 12.5827 4.82724 12.533 5.11401L12.5319 5.12173C12.5017 5.11268 12.4707 5.1064 12.4393 5.10298H11.4521C10.6479 5.10386 9.87695 5.42371 9.30831 5.99235C8.73967 6.561 8.41982 7.332 8.41895 8.13618C8.41982 8.94037 8.73967 9.71137 9.30831 10.28C9.87695 10.8487 10.6479 11.1685 11.4521 11.1694ZM28.5482 6.20596C29.0599 6.20684 29.5503 6.41048 29.9121 6.77228C30.2739 7.13408 30.4775 7.62453 30.4784 8.13618C30.4778 8.64793 30.2743 9.13855 29.9124 9.50041C29.5506 9.86227 29.0599 10.0658 28.5482 10.0664H27.6493C27.7816 8.78253 27.7745 7.48818 27.6272 6.20596H28.5482ZM10.0905 6.76959C10.2684 6.58962 10.4805 6.44704 10.7144 6.35025C10.9482 6.25346 11.199 6.2044 11.4521 6.20596H12.3731C12.2259 7.48818 12.2185 8.78259 12.351 10.0664H11.4521C10.9404 10.0658 10.4498 9.86227 10.0879 9.50041C9.72605 9.13855 9.5225 8.64793 9.52192 8.13618C9.52059 7.88196 9.57021 7.63005 9.66787 7.39533C9.76553 7.16061 9.90923 6.94784 10.0905 6.76959Z" fill="#FFD700"/>
</g>
</g>
</g>
</svg>
