<svg width="40" height="40" viewBox="0 0 40 40" fill="none" xmlns="http://www.w3.org/2000/svg">
<g id="Frame">
<g id="Group">
<g id="Group_2">
<path id="Vector" d="M13.3823 31.0229L12.2793 32.6774H27.7209L26.6179 31.0229H13.3823Z" fill="#CD7F32"/>
<path id="Vector_2" d="M28.2723 33.7803H11.7278C11.4232 33.7803 11.1763 34.0272 11.1763 34.3318V35.4347C11.1763 35.7393 11.4232 35.9862 11.7278 35.9862H28.2723C28.5769 35.9862 28.8238 35.7393 28.8238 35.4347V34.3318C28.8238 34.0272 28.5769 33.7803 28.2723 33.7803Z" fill="#CD7F32"/>
<path id="Vector_3" d="M35.814 15.2157C35.279 14.8981 34.5665 15.0547 33.6174 15.7766C33.3681 15.9641 33.1315 16.1682 32.9099 16.3888C33.0207 16.0005 33.1238 15.6123 33.2165 15.224C33.8899 14.34 34.2813 13.2736 34.3399 12.1638C34.5406 10.2331 34.0862 8.59295 33.5308 8.33209C32.9639 8.58743 32.456 10.0726 32.1797 11.8335C31.9929 12.8196 31.9963 13.8322 32.1896 14.817C32.1858 14.8286 32.1775 14.8374 32.1747 14.8501C32.0803 15.247 31.9765 15.6417 31.8631 16.0336C31.7913 15.735 31.6897 15.4444 31.5598 15.1661C31.058 14.0962 30.4348 13.7085 29.8408 13.6964C29.757 13.7045 29.6775 13.7379 29.6129 13.792C29.5484 13.8462 29.5017 13.9186 29.4791 13.9997C29.2172 14.8747 29.2912 15.8158 29.6864 16.6391C29.7994 17.0001 29.984 17.3345 30.2291 17.6226C30.4743 17.9106 30.7749 18.1463 31.1131 18.3157C30.8391 19.0514 30.5326 19.7745 30.1943 20.483C30.162 20.1268 30.088 19.7757 29.9737 19.4368C29.5767 18.2622 28.9524 17.7421 28.3121 17.5998C28.2263 17.5865 28.1385 17.6007 28.0612 17.6403C27.9839 17.6799 27.9212 17.743 27.882 17.8204C27.6863 18.2371 27.5756 18.6885 27.5564 19.1484C27.5372 19.6083 27.6098 20.0675 27.77 20.499C27.9389 21.3249 28.4276 22.0504 29.1294 22.5174C28.7398 23.192 28.3218 23.8498 27.8764 24.489C27.8961 24.0874 27.8625 23.685 27.7766 23.2923C27.5009 22.0255 26.8998 21.3731 26.2369 21.0946C26.153 21.062 26.0608 21.0572 25.974 21.0811C25.8872 21.1049 25.8103 21.1561 25.7549 21.227C25.3109 21.8099 25.0986 22.6608 25.3164 23.9105C25.4071 24.823 25.8455 25.6657 26.5407 26.2637C26.1679 26.7098 25.6198 27.3247 25.2696 27.7141H24.412V27.488C24.412 27.0804 24.2758 26.685 24.026 26.3629C23.772 26.0417 23.4192 25.813 23.0223 25.7122C22.7658 25.6487 22.5262 25.53 22.3205 25.3642C22.1147 25.1984 21.9477 24.9897 21.831 24.7526L21.6546 24.4052V21.6477C21.5553 21.7139 21.4505 21.7746 21.3457 21.8352C20.9374 22.0736 20.473 22.1992 20.0001 22.1992C19.5272 22.1992 19.0629 22.0736 18.6545 21.8352C18.5497 21.7746 18.4449 21.7139 18.3456 21.6477V24.4052L18.1692 24.7526C18.0525 24.9897 17.8855 25.1984 17.6797 25.3642C17.474 25.53 17.2345 25.6487 16.978 25.7122C16.5816 25.8111 16.2296 26.0395 15.9779 26.3612C15.7261 26.6829 15.589 27.0795 15.5882 27.488V27.7141H14.7307C14.3799 27.3247 13.8317 26.7098 13.4595 26.2637C14.1547 25.6657 14.5931 24.823 14.6838 23.9105C14.9016 22.6608 14.6893 21.8104 14.2453 21.2275C14.1899 21.1566 14.113 21.1054 14.0262 21.0816C13.9394 21.0578 13.8472 21.0625 13.7633 21.0951C13.0999 21.3731 12.4999 22.0255 12.2236 23.2923C12.1379 23.6851 12.1045 24.0875 12.1243 24.489C11.6792 23.8496 11.261 23.1918 10.8708 22.5174C11.5726 22.0504 12.0613 21.3249 12.2302 20.499C12.3903 20.0674 12.4628 19.6083 12.4435 19.1484C12.4242 18.6885 12.3134 18.237 12.1177 17.8204C12.0785 17.7429 12.0158 17.6797 11.9386 17.64C11.8613 17.6002 11.7734 17.586 11.6876 17.5993C11.0478 17.7416 10.4235 18.2616 10.0259 19.4357C9.91158 19.775 9.83754 20.1265 9.80533 20.483C9.46748 19.774 9.16093 19.0505 8.88655 18.3146C9.22481 18.1454 9.52552 17.9098 9.77073 17.6218C10.0159 17.3339 10.2006 16.9995 10.3138 16.6386C10.7092 15.8152 10.7826 14.8738 10.5212 13.9992C10.4985 13.9179 10.4517 13.8455 10.387 13.7913C10.3224 13.7372 10.2428 13.7039 10.1588 13.6959C9.56543 13.708 8.94225 14.0957 8.43985 15.1656C8.30999 15.4439 8.20837 15.7345 8.13653 16.0331C8.0234 15.6411 7.91969 15.2465 7.82549 14.8496C7.82273 14.8374 7.81446 14.8286 7.8106 14.8165C8.00362 13.8315 8.00693 12.819 7.82053 11.8329C7.54368 10.0726 7.03631 8.58688 6.46939 8.33154C5.91349 8.5924 5.46017 10.2325 5.66035 12.1633C5.71887 13.273 6.11034 14.3394 6.78373 15.2235C6.87638 15.6117 6.97951 16 7.09036 16.3882C6.86866 16.1676 6.63263 15.9636 6.3828 15.7761C5.43425 15.0542 4.72117 14.8975 4.18623 15.2152C4.03182 15.3547 3.96674 15.567 4.01637 15.7694C4.09737 16.3039 4.29066 16.8152 4.58353 17.2695C4.87639 17.7239 5.26219 18.1111 5.7155 18.4055C6.60891 18.9863 7.34901 19.0061 7.87182 18.7491C8.16007 19.5186 8.48246 20.2749 8.83802 21.0157C8.53718 20.8153 8.21985 20.6407 7.88946 20.494C6.76167 19.9845 5.96202 19.9878 5.42873 20.4196C5.28534 20.5795 5.24564 20.8073 5.32671 21.0064C5.50047 21.5254 5.7898 21.9981 6.17288 22.3891C6.55596 22.78 7.02278 23.0788 7.53817 23.263C7.91766 23.4475 8.33853 23.5303 8.75962 23.5033C9.18071 23.4764 9.58758 23.3405 9.94044 23.1092C10.3498 23.8151 10.7888 24.5034 11.2563 25.1723C10.8799 25.0119 10.4887 24.8887 10.0882 24.8044C8.82258 24.5259 7.96667 24.6975 7.45544 25.2434C7.39128 25.3314 7.35422 25.4362 7.34884 25.545C7.34345 25.6537 7.36996 25.7617 7.42511 25.8556C7.6895 26.3482 8.06776 26.7705 8.52841 27.0874C8.98905 27.4042 9.51874 27.6064 10.0733 27.6771C10.5227 27.7856 10.992 27.7793 11.4383 27.659C11.8846 27.5386 12.2934 27.308 12.6273 26.9883C12.8175 27.2155 13.0426 27.4753 13.2725 27.7361C13.149 27.7597 13.0375 27.8254 12.957 27.9219C12.8765 28.0184 12.8319 28.1399 12.8308 28.2656V29.3685C12.8308 29.5148 12.8889 29.6551 12.9923 29.7585C13.0957 29.8619 13.236 29.92 13.3823 29.92H26.6179C26.7642 29.92 26.9045 29.8619 27.0079 29.7585C27.1113 29.6551 27.1694 29.5148 27.1694 29.3685V28.2656C27.1683 28.1399 27.1237 28.0184 27.0432 27.9219C26.9627 27.8254 26.8512 27.7597 26.7277 27.7361C26.9577 27.4753 27.1827 27.215 27.3729 26.9883C27.7068 27.308 28.1156 27.5386 28.5619 27.659C29.0082 27.7793 29.4775 27.7856 29.9269 27.6771C30.4814 27.6064 31.0109 27.4041 31.4715 27.0873C31.932 26.7704 32.3102 26.3481 32.5745 25.8556C32.6298 25.7617 32.6564 25.6538 32.6511 25.5451C32.6458 25.4363 32.6088 25.3315 32.5448 25.2434C32.0335 24.6975 31.1771 24.5259 29.9125 24.8044C29.5116 24.8883 29.12 25.0118 28.7434 25.1728C29.2114 24.5039 29.6508 23.8154 30.0603 23.1092C30.4132 23.3405 30.8201 23.4764 31.2411 23.5033C31.6622 23.5303 32.0831 23.4475 32.4626 23.263C32.978 23.0788 33.4448 22.78 33.8279 22.3891C34.211 21.9981 34.5003 21.5254 34.6741 21.0064C34.7551 20.8073 34.7154 20.5795 34.572 20.4196C34.0387 19.9878 33.2391 19.9845 32.1113 20.494C31.7804 20.6407 31.4633 20.8155 31.1627 21.0163C31.518 20.2754 31.8402 19.5191 32.1284 18.7497C32.6512 19.0067 33.3919 18.9868 34.2847 18.4055C34.738 18.1111 35.1238 17.7239 35.4167 17.2695C35.7096 16.8152 35.9028 16.3039 35.9838 15.7694C36.008 15.6704 36.005 15.5667 35.9751 15.4692C35.9452 15.3718 35.8895 15.2842 35.814 15.2157Z" fill="#CD7F32"/>
<path id="Vector_4" d="M11.4521 11.1693H12.4172C12.4448 11.166 12.4724 11.1605 12.4994 11.1528L12.4999 11.1583C12.8082 13.1817 13.5727 15.1086 14.7354 16.793C15.8982 18.4774 17.4288 19.8754 19.2115 20.881C19.6979 21.1678 20.3024 21.1678 20.7888 20.881C22.5715 19.8754 24.1021 18.4774 25.2649 16.793C26.4277 15.1086 27.1921 13.1817 27.5004 11.1583L27.5009 11.1528C27.5278 11.1605 27.5553 11.166 27.5831 11.1693H28.5482C29.3524 11.1684 30.1234 10.8486 30.692 10.28C31.2607 9.71132 31.5805 8.94033 31.5814 8.13615C31.5805 7.33197 31.2607 6.56098 30.692 5.99234C30.1234 5.4237 29.3524 5.10385 28.5482 5.10297H27.561C27.5296 5.10639 27.4986 5.11267 27.4684 5.12172L27.4673 5.114C27.4177 4.82723 27.368 4.59009 27.3184 4.39156C27.2902 4.27978 27.2255 4.1806 27.1346 4.10968C27.0437 4.03877 26.9318 4.00018 26.8165 4H13.1838C13.0685 4.00018 12.9566 4.03877 12.8657 4.10968C12.7748 4.1806 12.7101 4.27978 12.6819 4.39156C12.6323 4.59009 12.5827 4.82723 12.533 5.114L12.5319 5.12172C12.5017 5.11267 12.4707 5.10639 12.4393 5.10297H11.4521C10.6479 5.10385 9.87695 5.4237 9.30831 5.99234C8.73967 6.56098 8.41982 7.33197 8.41895 8.13615C8.41982 8.94033 8.73967 9.71132 9.30831 10.28C9.87695 10.8486 10.6479 11.1684 11.4521 11.1693ZM28.5482 6.20595C29.0599 6.20682 29.5503 6.41046 29.9121 6.77226C30.2739 7.13405 30.4775 7.6245 30.4784 8.13615C30.4778 8.64789 30.2743 9.13851 29.9124 9.50036C29.5506 9.86222 29.0599 10.0658 28.5482 10.0664H27.6493C27.7816 8.78249 27.7745 7.48815 27.6272 6.20595H28.5482ZM10.0905 6.76957C10.2684 6.5896 10.4805 6.44702 10.7144 6.35023C10.9482 6.25344 11.199 6.20438 11.4521 6.20595H12.3731C12.2259 7.48815 12.2185 8.78255 12.351 10.0664H11.4521C10.9404 10.0658 10.4498 9.86222 10.0879 9.50036C9.72605 9.13851 9.5225 8.64789 9.52192 8.13615C9.52059 7.88193 9.57021 7.63002 9.66787 7.3953C9.76553 7.16058 9.90923 6.94781 10.0905 6.76957Z" fill="#CD7F32"/>
</g>
</g>
</g>
</svg>
